<svg width="32" height="32" viewBox="0 0 242 242" fill="none" xmlns="http://www.w3.org/2000/svg">
<path d="M1 120.999C1 125.559 2.2 130.119 4.52 134.039L46.5999 206.919C50.9199 214.359 57.4799 220.44 65.6399 223.16C81.7199 228.52 98.3599 221.64 106.28 207.88L116.44 190.279L76.3599 120.999L128.84 30.04C131.88 24.76 135.96 20.44 140.76 17H75.4799C64.0399 17 53.4799 23.08 47.7999 33L4.52 107.96C2.2 111.88 1 116.439 1 120.999Z" fill="#FFFFFF"/>
<path d="M241 120.999C241 116.439 239.8 111.879 237.48 107.959L194.84 34.1192C186.92 20.4392 170.28 13.5592 154.2 18.8392C146.04 21.5592 139.48 27.6392 135.16 35.0792L125.56 51.6392L165.64 120.999L113.16 211.958C110.12 217.158 106.04 221.558 101.24 224.998H166.52C177.96 224.998 188.52 218.918 194.2 208.998L237.48 134.039C239.8 130.119 241 125.559 241 120.999Z" fill="#FFFFFF"/>
</svg>
