<?xml version="1.0" encoding="UTF-8"?>
<svg version="1.1" xmlns="http://www.w3.org/2000/svg" width="500" height="500">
<path d="M0 0 C165 0 330 0 500 0 C500 165 500 330 500 500 C335 500 170 500 0 500 C0 335 0 170 0 0 Z " fill="#000000" transform="translate(0,0)"/>
<path d="M0 0 C28.71 0 57.42 0 87 0 C87 27.39 87 54.78 87 83 C119.01 83 151.02 83 184 83 C184 55.61 184 28.22 184 0 C242.41 0 300.82 0 361 0 C361 85.47 361 170.94 361 259 C302.59 259 244.18 259 184 259 C184 231.61 184 204.22 184 176 C151.99 176 119.98 176 87 176 C87 203.39 87 230.78 87 259 C58.29 259 29.58 259 0 259 C0 173.53 0 88.06 0 0 Z " fill="#FCFCFC" transform="translate(69,121)"/>
<path d="M0 0 C58.41 0 116.82 0 177 0 C177 85.47 177 170.94 177 259 C118.59 259 60.18 259 0 259 C0 231.61 0 204.22 0 176 C28.05 176 56.1 176 85 176 C85 145.31 85 114.62 85 83 C56.95 83 28.9 83 0 83 C0 55.61 0 28.22 0 0 Z " fill="#FFFFFF" transform="translate(253,121)"/>
<path d="M0 0 C27.72 0 55.44 0 84 0 C84 30.03 84 60.06 84 91 C56.28 91 28.56 91 0 91 C0 60.97 0 30.94 0 0 Z " fill="#000000" transform="translate(253,205)"/>
</svg>
