<?xml version="1.0" encoding="UTF-8"?>
<svg xmlns="http://www.w3.org/2000/svg" xmlns:xlink="http://www.w3.org/1999/xlink" width="128px" height="128px" viewBox="0 0 128 128" version="1.1">
<g id="surface1">
<path style=" stroke:none;fill-rule:nonzero;fill:rgb(0%,0%,0%);fill-opacity:1;" d="M 0 0 C 42.238281 0 84.480469 0 128 0 C 128 42.238281 128 84.480469 128 128 C 85.761719 128 43.519531 128 0 128 C 0 85.761719 0 43.519531 0 0 Z M 0 0 "/>
<path style=" stroke:none;fill-rule:nonzero;fill:rgb(98.823529%,98.823529%,98.823529%);fill-opacity:1;" d="M 17.664062 30.976562 C 25.015625 30.976562 32.363281 30.976562 39.9375 30.976562 C 39.9375 37.988281 39.9375 45 39.9375 52.222656 C 48.128906 52.222656 56.324219 52.222656 64.769531 52.222656 C 64.769531 45.210938 64.769531 38.199219 64.769531 30.976562 C 79.722656 30.976562 94.675781 30.976562 110.078125 30.976562 C 110.078125 52.855469 110.078125 74.738281 110.078125 97.28125 C 95.128906 97.28125 80.175781 97.28125 64.769531 97.28125 C 64.769531 90.269531 64.769531 83.257812 64.769531 76.03125 C 56.574219 76.03125 48.378906 76.03125 39.9375 76.03125 C 39.9375 83.042969 39.9375 90.054688 39.9375 97.28125 C 32.585938 97.28125 25.238281 97.28125 17.664062 97.28125 C 17.664062 75.398438 17.664062 53.519531 17.664062 30.976562 Z M 17.664062 30.976562 "/>
<path style=" stroke:none;fill-rule:nonzero;fill:rgb(100%,100%,100%);fill-opacity:1;" d="M 64.769531 30.976562 C 79.722656 30.976562 94.675781 30.976562 110.078125 30.976562 C 110.078125 52.855469 110.078125 74.738281 110.078125 97.28125 C 95.128906 97.28125 80.175781 97.28125 64.769531 97.28125 C 64.769531 90.269531 64.769531 83.257812 64.769531 76.03125 C 71.949219 76.03125 79.128906 76.03125 86.527344 76.03125 C 86.527344 68.175781 86.527344 60.320312 86.527344 52.222656 C 79.347656 52.222656 72.167969 52.222656 64.769531 52.222656 C 64.769531 45.210938 64.769531 38.199219 64.769531 30.976562 Z M 64.769531 30.976562 "/>
<path style=" stroke:none;fill-rule:nonzero;fill:rgb(0%,0%,0%);fill-opacity:1;" d="M 64.769531 52.480469 C 71.863281 52.480469 78.960938 52.480469 86.273438 52.480469 C 86.273438 60.167969 86.273438 67.855469 86.273438 75.777344 C 79.175781 75.777344 72.078125 75.777344 64.769531 75.777344 C 64.769531 68.089844 64.769531 60.402344 64.769531 52.480469 Z M 64.769531 52.480469 "/>
</g>
</svg>
