<svg width="238" height="238" viewBox="0 0 238 238" fill="none" xmlns="http://www.w3.org/2000/svg">
<g clip-path="url(#clip0_3682_2767)">
<path d="M169.918 151.249L164.506 135.869L157.379 115.617L152.223 100.96L145.474 81.779L137.633 59.5H99.6029L93.5324 76.7516L88.1203 92.1321L61.2402 168.518H86.3228L94.1915 146.222H132.229L125.479 127.04H100.913L106.069 112.384L116.837 81.779L118.618 76.7134L120.398 81.779L150.906 168.5L150.913 168.518H175.995L169.918 151.249Z" fill="#15252D"/>
<path d="M222.007 60.4327C221.377 59.3152 220.328 58.4938 219.092 58.1493C217.857 57.8048 216.534 57.9653 215.417 58.5956C214.299 59.2259 213.478 60.2743 213.133 61.5102C212.789 62.7461 212.949 64.0682 213.58 65.1858C226.408 87.9957 230.592 114.663 225.366 140.306C220.141 165.948 205.854 188.851 185.122 204.822C164.39 220.792 138.6 228.761 112.472 227.271C86.3451 225.78 61.6284 214.93 42.8471 196.706C24.0658 178.481 12.4764 154.102 10.2003 128.032C7.92431 101.961 15.1139 75.9426 30.4531 54.7395C45.7923 33.5363 68.2548 18.567 93.7287 12.5717C119.203 6.57632 145.984 9.95607 169.169 22.0923C168.426 25.5125 168.92 29.0854 170.561 32.1766C172.202 35.2678 174.886 37.6774 178.136 38.9777C181.385 40.278 184.99 40.3849 188.311 39.2794C191.632 38.1739 194.453 35.9275 196.275 32.9389C198.097 29.9504 198.801 26.4131 198.262 22.9548C197.723 19.4966 195.976 16.3412 193.331 14.0486C190.687 11.7561 187.315 10.4748 183.815 10.4321C180.316 10.3895 176.914 11.5883 174.214 13.8157C149.014 0.453404 119.841 -3.37605 92.0453 3.02956C64.2498 9.43517 39.6953 25.6465 22.8848 48.6905C6.07431 71.7345 -1.86527 100.066 0.522193 128.49C2.90965 156.914 15.4641 183.525 35.8831 203.442C56.3021 223.359 83.2168 235.247 111.691 236.926C140.166 238.605 168.291 229.963 190.91 212.584C213.528 195.205 229.123 170.255 234.835 142.308C240.547 114.362 235.992 85.2934 222.007 60.4333V60.4327Z" fill="#15252D"/>
</g>
<defs>
<clipPath id="clip0_3682_2767">
<rect width="237.236" height="237.236" fill="white"/>
</clipPath>
</defs>
</svg>
